<?xml version="1.0" encoding="utf-8"?>
<!-- Generator: Adobe Illustrator 19.2.0, SVG Export Plug-In . SVG Version: 6.00 Build 0)  -->
<svg version="1.0" id="Layer_1" xmlns="http://www.w3.org/2000/svg" xmlns:xlink="http://www.w3.org/1999/xlink" x="0px" y="0px"
	 viewBox="0 0 143.7 126.4" enable-background="new 0 0 143.7 126.4" xml:space="preserve">
<g>
	<polygon fill="#FFFFFF" points="56.7,79.7 55.1,84.9 59.9,84.9 58.3,79.7 	"/>
	<path fill="#FFFFFF" d="M61.4,57.4c0.3-0.3,0.3-0.8,0.3-1.9c0-1.1-0.1-1.6-0.3-1.9c-0.2-0.2-0.5-0.3-1.5-0.3H55v4.4h4.9
		C60.9,57.6,61.2,57.6,61.4,57.4z"/>
	<path fill="#FFFFFF" d="M82.2,38.3c1.4,0,4.6-3.4,4.6-4.2c0-0.2-0.1-0.3-0.3-0.3c-0.2,0-0.4,0.1-0.5,0.2c-1.6,1.1-3.2,2.6-4.3,3.9
		C81.8,38.2,82.1,38.3,82.2,38.3z"/>
	<path fill="#FFFFFF" d="M83.1,53.5h-3.2c-0.9,0-1.3,0.1-1.5,0.3c-0.2,0.2-0.4,0.9-0.4,5.7c0,4.9,0.2,5.5,0.4,5.7
		c0.2,0.2,0.5,0.3,1.5,0.3h3.2c0.9,0,1.3-0.1,1.5-0.3c0.2-0.2,0.4-0.9,0.4-5.7c0-4.8-0.2-5.5-0.4-5.7C84.3,53.5,84,53.5,83.1,53.5z"
		/>
	<path fill="#FFFFFF" d="M84.7,83.1c0.3-0.3,0.4-0.8,0.4-1.9c0-1.1-0.1-1.6-0.4-1.9C84.5,79,84.2,79,83.3,79h-4.9v4.4h4.9
		C84.2,83.3,84.5,83.2,84.7,83.1z"/>
	<path fill="#FFFFFF" d="M107.8,91.3c1.4,0,2-0.1,2.3-0.4c0.3-0.4,0.5-1.3,0.5-5.7c0-4.5-0.1-5.4-0.5-5.7c-0.3-0.3-0.9-0.4-2.3-0.4
		h-5.2l0.1,12.2H107.8z"/>
	<path fill="#FFFFFF" d="M140.5,37.8L75.1,0.9c-1.8-1.1-4.7-1.1-6.5,0L3.3,37.8C1.5,38.9,0,41.5,0,43.5v54c0,2.1,1.6,4.3,3.6,4.9
		l64.6,23.5c2,0.6,5.3,0.6,7.3,0l64.6-23.5c2-0.6,3.6-2.8,3.6-4.9v-54C143.7,41.5,142.2,38.9,140.5,37.8z M69.5,96.2h-9.9v-4.8h2
		l-0.5-1.9h-7.2l-0.5,1.9h2v4.8h-11v-4.9h2.5L52.8,74h9.9l5.8,17.3h1h0.9h1.4V79h-2.3v-4.9h17.1c1.9,0,3.1,0.3,4,1.2
		c1,1,1.3,2.2,1.3,5c0,3.9-1,4.9-3.6,5.4l3.3,5.7h2.1h2.3V79h-2.3v-4.9h15.1c3.2,0,4.9,0.4,6.2,1.7c1.5,1.5,2.3,3.8,2.3,9.3
		c0,5.5-0.8,7.8-2.3,9.3c-1.3,1.3-3,1.7-6.2,1.7H96.4h-2.6h-6.8L82,87.9h-3.7v3.4h2.4v4.9H70.4H69.5z M89,25.9
		c-1.8,0.2-4,0.4-6.2,0.6c-1.7,0.5-2.9,1.5-4,2.4c-3.3,3.1-5.6,4.7-6.2,5.5c1.6-0.8,2.5-1.3,3.7-1.3c0.7,0,2.1,0.8,2.1,1.8
		c0,0.3-0.1,0.4-0.5,0.8c-1.2,1-4.8,3.9-4.8,5.1c0,0.2,0.1,0.3,0.3,0.3c0.5,0,2-1,3.4-2.1c0.8-0.6,1.7-1.8,1.9-2.2
		c0.7-1,1.6-2,2.6-2.9c1.9-1.7,3.4-2.5,4.3-2.5c0.5,0,1.2,0.5,1.8,1.2c0.9,0.8,0.9,1.2,0.9,1.5c0,2.3-4,5.6-5.8,5.6
		c-0.5,0-1.2-0.3-1.8-0.8c-0.5,0.7-0.7,1.3-0.7,1.7c0,0.4,0.2,0.9,0.9,0.9c0.4,0,1-0.1,1.3-0.2c4.4-1.6,6.7-3.8,6.9-3.8
		c0.2,0,0.2,0.1,0.2,0.2c0,0.3-1,1.4-2,2.3c-1.8,1.6-4.1,3.3-6.5,3.3c-1,0-3.2-2.3-3.3-3.3c-1.5,1.4-3.9,3.1-5,3.1
		c-1.4,0-2.1-1.7-2.1-2.9c0-1.5,1.9-3.3,3.5-4.9c-1.9,0.8-4,2.6-7.4,6.7c-0.2,0.2-0.6,1.2-0.9,1.2c-0.5,0-2-1.3-2-2.2
		c0-0.1,0.1-0.3,0.2-0.6c3-4.4,9.3-10.2,13.1-13.6c-1,0-1.8,0.1-2.5,0.1c-0.7,0-2.9,1.8-4.6,3.4c-1.9,1.9-6.8,6.6-10,10.7
		c-1.9,2.4-1.6,3.2-2,3.2c-1,0-2.6-2.9-2.6-3.4c0-1.5,4.4-5.7,6.6-7.8c3.7-3.6,5.8-5.4,6.2-5.8c0.2-0.1,0.6-0.4,0.6-0.4
		c-5.1-0.9-10.5-2.5-13.8-1.6c-4.1,1.1-6.2,9.9-0.3,7.8c2.5-0.9,4.8-2.8,6.1-4.5c0.5-0.7,0.9-0.3,0.3,0.6c-1.8,2.9-4.7,5.6-10.1,5.8
		C46,35,47,26.7,53.3,24c2.5-1.1,6.2-0.6,11-0.6c11.2,0,22.2-0.7,22.7-0.7c0.3,0,0.4-0.3,2.6,1.5c0.3,0.3,1.2,0.8,1.2,1.2
		C90.7,25.6,89.7,25.8,89,25.9z M91.7,59.5c0,6.1-0.7,8.6-2,9.9c-0.8,0.9-1.8,1.2-4.1,1.2h-8.2c-2.3,0-3.3-0.3-4.1-1.2
		c-1.3-1.3-2-3.8-2-9.9c0-6.1,0.7-8.6,2-9.8c0.9-0.9,1.8-1.2,4.1-1.2h8.2c2.3,0,3.3,0.3,4.1,1.2C91,50.9,91.7,53.4,91.7,59.5z
		 M57.4,65.6v4.9H46.2v-4.9h2.3V53.3h-2.3v-4.9h17.1c1.9,0,3.1,0.3,4,1.2c1,1,1.3,2.2,1.3,5c0,3.9-1,4.9-3.6,5.4l3.3,5.7h2.1v4.9
		h-6.8l-4.9-8.3H55v3.4H57.4z M42.8,91.3v4.9H31.3v-4.9h2.5v-3.4L27.4,79h-2.2v-4.9h11.5V79h-1.9l2.4,3.8h0.1L40,79H38v-4.9h11.1V79
		h-2.2l-6.5,8.7v3.5H42.8z M25.2,65.6h6V53.3h-6v-4.9h19.2v4.9h-6v12.3h6v4.9H25.2V65.6z M118.5,53.3L118.5,53.3h-2.3v17.2h-7.3
		l-7.8-12.6v7.7h2.3l0,4.9H93v-4.9h2.3V53.3H93v-4.9h10l7.3,11.3v-6.4h-2.2v-4.9h10.3V53.3z"/>
</g>
</svg>
