<?xml version="1.0" encoding="utf-8"?>
<!-- Generator: Adobe Illustrator 19.2.0, SVG Export Plug-In . SVG Version: 6.00 Build 0)  -->
<svg version="1.0" id="Layer_1" xmlns="http://www.w3.org/2000/svg" xmlns:xlink="http://www.w3.org/1999/xlink" x="0px" y="0px"
	 viewBox="0 0 480.7 145.9" enable-background="new 0 0 480.7 145.9" xml:space="preserve">
<metadata><?xpacket begin="﻿" id="W5M0MpCehiHzreSzNTczkc9d"?>
<x:xmpmeta xmlns:x="adobe:ns:meta/" x:xmptk="Adobe XMP Core 5.6-c111 79.158366, 2015/09/25-01:12:00        ">
   <rdf:RDF xmlns:rdf="http://www.w3.org/1999/02/22-rdf-syntax-ns#">
      <rdf:Description rdf:about=""
            xmlns:ExtensisFontSense="http://www.extensis.com/meta/FontSense/">
         <ExtensisFontSense:slug>
            <rdf:Bag>
               <rdf:li>
                  <rdf:Description>
                     <ExtensisFontSense:Family>Tisa Pro</ExtensisFontSense:Family>
                     <ExtensisFontSense:Version>7.504</ExtensisFontSense:Version>
                     <ExtensisFontSense:OutlineFileSize>0</ExtensisFontSense:OutlineFileSize>
                     <ExtensisFontSense:KerningChecksum>0</ExtensisFontSense:KerningChecksum>
                     <ExtensisFontSense:Foundry>--</ExtensisFontSense:Foundry>
                     <ExtensisFontSense:FontKind>OpenType - PS</ExtensisFontSense:FontKind>
                     <ExtensisFontSense:Checksum>1167894740</ExtensisFontSense:Checksum>
                     <ExtensisFontSense:PostScriptName>TisaPro-Medi</ExtensisFontSense:PostScriptName>
                     <ExtensisFontSense:FontSense_1.2_Checksum>1167894740</ExtensisFontSense:FontSense_1.2_Checksum>
                  </rdf:Description>
               </rdf:li>
            </rdf:Bag>
         </ExtensisFontSense:slug>
      </rdf:Description>
   </rdf:RDF>
</x:xmpmeta>
                                                                                                    
                                                                                                    
                                                                                                    
                                                                                                    
                                                                                                    
                                                                                                    
                                                                                                    
                                                                                                    
                                                                                                    
                                                                                                    
                                                                                                    
                                                                                                    
                                                                                                    
                                                                                                    
                                                                                                    
                                                                                                    
                                                                                                    
                                                                                                    
                                                                                                    
                                                                                                    
                           
<?xpacket end="w"?></metadata>
<g>
	<polygon fill="#FFFFFF" points="65.5,92 63.7,98 69.2,98 67.3,92 	"/>
	<path fill="#FFFFFF" d="M70.9,66.2c0.3-0.4,0.4-0.9,0.4-2.2c0-1.3-0.1-1.9-0.4-2.2c-0.2-0.2-0.6-0.3-1.7-0.3h-5.7v5h5.7
		C70.3,66.5,70.7,66.4,70.9,66.2z"/>
	<path fill="#FFFFFF" d="M95,44.1c1.6,0,5.3-3.9,5.3-4.8c0-0.2-0.1-0.3-0.3-0.3c-0.2,0-0.4,0.1-0.6,0.2c-1.9,1.3-3.7,3-5,4.5
		C94.5,44.1,94.9,44.1,95,44.1z"/>
	<path fill="#FFFFFF" d="M96,61.7h-3.7c-1.1,0-1.5,0.1-1.7,0.3c-0.3,0.3-0.4,1.1-0.4,6.6c0,5.6,0.2,6.4,0.4,6.6
		c0.2,0.2,0.6,0.3,1.7,0.3H96c1.1,0,1.5-0.1,1.7-0.3c0.3-0.3,0.4-1.1,0.4-6.6c0-5.6-0.2-6.4-0.4-6.6C97.4,61.8,97,61.7,96,61.7z"/>
	<path fill="#FFFFFF" d="M97.9,95.9c0.3-0.4,0.4-0.9,0.4-2.2c0-1.3-0.1-1.9-0.4-2.2c-0.2-0.2-0.6-0.3-1.7-0.3h-5.7v5h5.7
		C97.2,96.2,97.6,96.1,97.9,95.9z"/>
	<path fill="#FFFFFF" d="M124.5,105.4c1.6,0,2.3-0.1,2.6-0.5c0.4-0.4,0.5-1.5,0.5-6.6c0-5.1-0.1-6.2-0.5-6.6c-0.4-0.4-1-0.5-2.6-0.5
		h-6l0.1,14.2H124.5z"/>
	<path fill="#FFFFFF" d="M162.3,43.6L86.8,0.9c-2.1-1.2-5.4-1.2-7.5,0L3.8,43.6C1.7,44.8,0,47.8,0,50.2v62.4c0,2.4,1.9,4.9,4.2,5.6
		l74.6,27.2c2.3,0.7,6.1,0.7,8.4,0l74.6-27.2c2.3-0.7,4.2-3.2,4.2-5.6V50.2C166,47.8,164.3,44.8,162.3,43.6z M80.3,111H68.8v-5.6
		h2.3l-0.6-2.2h-8.3l-0.6,2.2H64v5.6H51.3v-5.7h2.9l6.8-20h11.5l6.7,20h1.1h1.1H83V91.2h-2.7v-5.7h19.8c2.2,0,3.6,0.4,4.6,1.4
		c1.1,1.1,1.5,2.6,1.5,5.7c0,4.5-1.2,5.6-4.2,6.2l3.9,6.6h2.5h2.7V91.2h-2.7v-5.7h17.4c3.7,0,5.7,0.5,7.2,2
		c1.7,1.8,2.7,4.4,2.7,10.8c0,6.4-0.9,9-2.7,10.7c-1.5,1.5-3.5,2-7.2,2h-14.4h-3h-7.9l-5.7-9.6h-4.3v3.9h2.8v5.7H81.4H80.3z
		 M102.9,29.8c-2,0.2-4.6,0.5-7.1,0.6c-1.9,0.5-3.4,1.7-4.6,2.8c-3.8,3.6-6.4,5.5-7.1,6.4c1.8-0.9,2.9-1.6,4.3-1.6
		c0.9,0,2.5,0.9,2.5,2c0,0.3-0.1,0.5-0.6,0.9c-1.3,1.1-5.6,4.5-5.6,5.9c0,0.3,0.2,0.4,0.4,0.4c0.6,0,2.3-1.1,3.9-2.4
		c0.9-0.7,1.9-2.1,2.2-2.5c0.8-1.2,1.9-2.3,3-3.3c2.2-2,3.9-2.9,5-2.9c0.6,0,1.4,0.6,2.1,1.4c1,0.9,1.1,1.4,1.1,1.8
		c0,2.7-4.6,6.5-6.7,6.5c-0.6,0-1.4-0.3-2-1c-0.5,0.8-0.8,1.5-0.8,2c0,0.4,0.2,1,1.1,1c0.5,0,1.1-0.2,1.5-0.3c5.1-1.9,7.8-4.4,8-4.4
		c0.2,0,0.2,0.2,0.2,0.3c0,0.3-1.1,1.6-2.3,2.6c-2,1.9-4.8,3.8-7.5,3.8c-1.2,0-3.7-2.7-3.8-3.9c-1.7,1.6-4.5,3.6-5.8,3.6
		c-1.6,0-2.4-1.9-2.4-3.3c0-1.8,2.1-3.8,4-5.7c-2.2,0.9-4.6,3-8.5,7.7c-0.2,0.3-0.7,1.4-1,1.4c-0.5,0-2.4-1.5-2.4-2.5
		c0-0.1,0.1-0.4,0.3-0.6c3.5-5.1,10.7-11.8,15.2-15.8c-1.1,0-2.1,0.1-2.8,0.1c-0.9,0-3.4,2.1-5.3,3.9c-2.2,2.2-7.9,7.7-11.5,12.4
		c-2.2,2.8-1.9,3.7-2.3,3.7c-1.1,0-3-3.3-3-4c0-1.8,5-6.6,7.6-9.1c4.3-4.1,6.7-6.3,7.2-6.7c0.2-0.2,0.7-0.5,0.7-0.5
		c-5.9-1-12.2-2.8-15.9-1.8c-4.7,1.3-7.2,11.4-0.4,9c2.9-1,5.5-3.3,7.1-5.2c0.6-0.8,1-0.4,0.3,0.7c-2.1,3.3-5.4,6.5-11.7,6.7
		c-6,0.2-4.8-9.3,2.4-12.4c2.9-1.2,7.2-0.7,12.7-0.7c13,0,25.6-0.8,26.2-0.8c0.4,0,0.4-0.3,2.9,1.7c0.4,0.3,1.3,0.9,1.3,1.3
		C104.8,29.5,103.6,29.8,102.9,29.8z M105.9,68.6c0,7-0.8,9.9-2.3,11.4c-1,1-2.1,1.4-4.7,1.4h-9.5c-2.7,0-3.8-0.4-4.7-1.4
		c-1.5-1.5-2.3-4.3-2.3-11.4c0-7,0.8-9.9,2.3-11.4c1-1,2.1-1.4,4.7-1.4h9.5c2.7,0,3.8,0.4,4.7,1.4C105.1,58.7,105.9,61.6,105.9,68.6
		z M66.3,75.7v5.7H53.4v-5.7H56V61.5h-2.7v-5.7h19.8c2.2,0,3.6,0.4,4.6,1.3c1.1,1.1,1.5,2.6,1.5,5.7c0,4.5-1.2,5.6-4.2,6.2l3.9,6.6
		h2.4v5.7h-7.9l-5.6-9.6h-4.3v3.9H66.3z M49.5,105.4v5.7H36.2v-5.7h2.9v-4l-7.4-10.2h-2.5v-5.7h13.3v5.6h-2.2l2.8,4.4h0.1l3-4.4
		h-2.2v-5.6h12.8v5.7h-2.6l-7.6,10.1v4.1H49.5z M29.2,75.7H36V61.5h-6.9v-5.7h22.1v5.7h-6.9v14.2h6.9v5.7H29.2V75.7z M136.9,61.5
		L136.9,61.5h-2.6v19.8h-8.4l-9-14.6v8.9h2.7l0,5.7h-12.2v-5.7h2.7V61.5h-2.7v-5.7H119l8.5,13.1v-7.4H125v-5.7h11.9V61.5z"/>
</g>
<text transform="matrix(1 0 0 1 187.7241 97.1322)" fill="#FFFFFF" font-family="'TisaPro-Medi'" font-size="48.0152px">Drive to Code</text>
</svg>
